<?xml version="1.0" standalone="no"?>
<!DOCTYPE svg PUBLIC "-//W3C//DTD SVG 20010904//EN"
 "http://www.w3.org/TR/2001/REC-SVG-20010904/DTD/svg10.dtd">
<svg version="1.0" xmlns="http://www.w3.org/2000/svg"
 width="418.000000pt" height="326.000000pt" viewBox="0 0 418.000000 326.000000"
 preserveAspectRatio="xMidYMid meet">
<metadata>
Created by potrace 1.16, written by Peter Selinger 2001-2019
</metadata>
<g transform="translate(0.000000,326.000000) scale(0.100000,-0.100000)"
fill="#000000" stroke="none">
<path d="M1710 2740 c-19 -19 -20 -33 -20 -270 l0 -250 395 0 395 0 0 250 c0
237 -1 251 -20 270 -19 19 -33 20 -375 20 -342 0 -356 -1 -375 -20z m710 -245
l0 -215 -335 0 -335 0 0 215 0 215 335 0 335 0 0 -215z"/>
<path d="M1630 2185 c0 -4 6 -18 14 -33 29 -56 36 -57 435 -57 201 0 379 3
394 8 24 7 67 57 67 80 0 4 -77 7 -171 7 -138 0 -173 -3 -185 -15 -11 -11 -38
-15 -98 -15 -62 0 -87 4 -96 15 -10 12 -44 15 -186 15 -96 0 -174 -2 -174 -5z"/>
<path d="M1140 1310 l0 -590 145 0 145 0 0 225 0 225 233 2 232 3 3 133 3 132
-236 0 -235 0 0 95 0 95 290 0 290 0 0 135 0 135 -435 0 -435 0 0 -590z"/>
<path d="M2180 1310 l0 -590 145 0 145 0 0 200 0 200 118 0 c169 1 255 14 332
52 291 143 290 540 -3 682 -81 40 -140 46 -448 46 l-289 0 0 -590z m610 305
c56 -29 77 -109 43 -166 -29 -49 -65 -59 -222 -59 l-141 0 0 120 0 120 145 0
c111 0 153 -4 175 -15z"/>
</g>
</svg>
